<svg width="89" height="92" viewBox="0 0 89 92" fill="none" xmlns="http://www.w3.org/2000/svg">
<path d="M9.50031 91.8334C6.97947 91.8334 4.82148 90.9358 3.02634 89.1406C1.2312 87.3455 0.333633 85.1875 0.333633 82.6667V9.33331C0.333633 6.81247 1.2312 4.65449 3.02634 2.85935C4.82148 1.06421 6.97947 0.166637 9.50031 0.166637H46.167L73.667 27.6667V46H64.5003V32.25H41.5837V9.33331H9.50031V82.6667H37.0003V91.8334H9.50031ZM65.8754 57.5729L70.8024 62.5L53.042 80.1459V84.9584H57.8545L75.6149 67.3125L80.4274 72.125L60.7191 91.8334H46.167V77.2813L65.8754 57.5729ZM80.4274 72.125L65.8754 57.5729L72.5212 50.9271C73.3615 50.0868 74.4309 49.6667 75.7295 49.6667C77.0281 49.6667 78.0976 50.0868 78.9379 50.9271L87.0733 59.0625C87.9136 59.9028 88.3337 60.9722 88.3337 62.2708C88.3337 63.5695 87.9136 64.6389 87.0733 65.4792L80.4274 72.125Z" fill="#D9D9D9"/>
</svg>
